<?xml version="1.0" encoding="UTF-8"?>
<svg width="800px" height="600px" viewBox="0 0 800 600" xmlns="http://www.w3.org/2000/svg">
  <defs>
    <linearGradient id="brainGradient" x1="0%" y1="0%" x2="100%" y2="100%">
      <stop offset="0%" stop-color="#6366f1" stop-opacity="0.8"/>
      <stop offset="100%" stop-color="#8b5cf6" stop-opacity="0.8"/>
    </linearGradient>
    <linearGradient id="neuronGradient" x1="0%" y1="0%" x2="100%" y2="100%">
      <stop offset="0%" stop-color="#6366f1" stop-opacity="1"/>
      <stop offset="100%" stop-color="#ec4899" stop-opacity="1"/>
    </linearGradient>
    <filter id="glow" x="-20%" y="-20%" width="140%" height="140%">
      <feGaussianBlur stdDeviation="4" result="blur"/>
      <feComposite in="SourceGraphic" in2="blur" operator="over"/>
    </filter>
    <filter id="neonGlow" x="-20%" y="-20%" width="140%" height="140%">
      <feGaussianBlur stdDeviation="6" result="blur"/>
      <feComposite in="SourceGraphic" in2="blur" operator="over"/>
      <feColorMatrix type="matrix" values="1 0 0 0 0  0 1 0 0 0  0 0 1 0 0  0 0 0 1.5 0"/>
    </filter>
  </defs>

  <!-- Background Brain Shape with more vibrant color -->
  <path d="M400,100 
           C550,100 600,200 600,300 
           C600,400 550,500 400,500 
           C250,500 200,400 200,300 
           C200,200 250,100 400,100 Z" 
        fill="url(#brainGradient)" 
        opacity="0.4"
        filter="url(#glow)"/>
  
  <!-- Left Hemisphere Detailed Structure -->
  <path d="M300,180 
           C340,160 360,180 380,230 
           C400,280 380,350 340,380 
           C300,410 280,390 260,340 
           C240,290 260,200 300,180 Z" 
        fill="url(#brainGradient)" 
        opacity="0.7"
        filter="url(#glow)"/>
  
  <!-- Right Hemisphere Detailed Structure -->
  <path d="M500,180 
           C460,160 440,180 420,230 
           C400,280 420,350 460,380 
           C500,410 520,390 540,340 
           C560,290 540,200 500,180 Z" 
        fill="url(#brainGradient)" 
        opacity="0.7"
        filter="url(#glow)"/>
  
  <!-- Cerebellum (at bottom of brain) -->
  <path d="M350,410 
           C370,430 430,430 450,410
           C470,390 480,370 480,350
           C480,330 470,320 450,310
           C430,300 370,300 350,310
           C330,320 320,330 320,350
           C320,370 330,390 350,410 Z"
        fill="url(#brainGradient)"
        opacity="0.7"
        filter="url(#glow)"/>
  
  <!-- Neural Network with Enhanced Visual Effects -->
  <!-- Neurons, increased size and glow -->
  <circle cx="300" cy="230" r="12" fill="#6366f1" filter="url(#neonGlow)"/>
  <circle cx="350" cy="180" r="10" fill="#ec4899" filter="url(#neonGlow)"/>
  <circle cx="380" cy="260" r="14" fill="#8b5cf6" filter="url(#neonGlow)"/>
  <circle cx="420" cy="210" r="11" fill="#6366f1" filter="url(#neonGlow)"/>
  <circle cx="450" cy="280" r="13" fill="#ec4899" filter="url(#neonGlow)"/>
  <circle cx="500" cy="230" r="12" fill="#8b5cf6" filter="url(#neonGlow)"/>
  <circle cx="320" cy="320" r="11" fill="#6366f1" filter="url(#neonGlow)"/>
  <circle cx="400" cy="350" r="12" fill="#ec4899" filter="url(#neonGlow)"/>
  <circle cx="480" cy="320" r="10" fill="#8b5cf6" filter="url(#neonGlow)"/>
  <circle cx="360" cy="400" r="13" fill="#6366f1" filter="url(#neonGlow)"/>
  <circle cx="440" cy="400" r="12" fill="#ec4899" filter="url(#neonGlow)"/>
  
  <!-- Connections with increased thickness -->
  <path d="M300,230 L350,180" stroke="url(#neuronGradient)" stroke-width="3" opacity="0.8"/>
  <path d="M300,230 L380,260" stroke="url(#neuronGradient)" stroke-width="3" opacity="0.8"/>
  <path d="M350,180 L420,210" stroke="url(#neuronGradient)" stroke-width="3" opacity="0.8"/>
  <path d="M380,260 L420,210" stroke="url(#neuronGradient)" stroke-width="3" opacity="0.8"/>
  <path d="M380,260 L450,280" stroke="url(#neuronGradient)" stroke-width="3" opacity="0.8"/>
  <path d="M420,210 L500,230" stroke="url(#neuronGradient)" stroke-width="3" opacity="0.8"/>
  <path d="M450,280 L500,230" stroke="url(#neuronGradient)" stroke-width="3" opacity="0.8"/>
  <path d="M300,230 L320,320" stroke="url(#neuronGradient)" stroke-width="3" opacity="0.8"/>
  <path d="M380,260 L400,350" stroke="url(#neuronGradient)" stroke-width="3" opacity="0.8"/>
  <path d="M450,280 L480,320" stroke="url(#neuronGradient)" stroke-width="3" opacity="0.8"/>
  <path d="M320,320 L360,400" stroke="url(#neuronGradient)" stroke-width="3" opacity="0.8"/>
  <path d="M400,350 L360,400" stroke="url(#neuronGradient)" stroke-width="3" opacity="0.8"/>
  <path d="M400,350 L440,400" stroke="url(#neuronGradient)" stroke-width="3" opacity="0.8"/>
  <path d="M480,320 L440,400" stroke="url(#neuronGradient)" stroke-width="3" opacity="0.8"/>
  
  <!-- Active Neural Pathways with enhanced visual effects -->
  <path d="M300,230 L350,180 L420,210 L500,230" 
        stroke="#10b981" stroke-width="4" stroke-dasharray="5,3" 
        fill="none" opacity="0.9" filter="url(#neonGlow)"/>
  
  <path d="M300,230 L380,260 L450,280 L480,320 L440,400" 
        stroke="#f59e0b" stroke-width="4" stroke-dasharray="5,3" 
        fill="none" opacity="0.9" filter="url(#neonGlow)"/>
  
  <!-- Pulses (animated) with enhanced effects -->
  <circle cx="350" cy="180" r="15" fill="#10b981" opacity="0.7" filter="url(#neonGlow)">
    <animate attributeName="r" values="15;25;15" dur="2s" repeatCount="indefinite"/>
    <animate attributeName="opacity" values="0.7;0.3;0.7" dur="2s" repeatCount="indefinite"/>
  </circle>
  
  <circle cx="450" cy="280" r="15" fill="#f59e0b" opacity="0.7" filter="url(#neonGlow)">
    <animate attributeName="r" values="15;25;15" dur="2.5s" repeatCount="indefinite"/>
    <animate attributeName="opacity" values="0.7;0.3;0.7" dur="2.5s" repeatCount="indefinite"/>
  </circle>
  
  <!-- Labels with improved styling -->
  <text x="170" y="230" fill="#6366f1" font-family="Arial" font-size="16" font-weight="bold" filter="url(#glow)">Active Recall</text>
  <text x="530" y="350" fill="#f59e0b" font-family="Arial" font-size="16" font-weight="bold" filter="url(#glow)">Spaced Repetition</text>
  
  <!-- Memory Strength Indicators with improved styling -->
  <rect x="620" y="200" width="20" height="120" rx="10" ry="10" fill="#e2e8f0"/>
  <rect x="620" y="250" width="20" height="70" rx="10" ry="10" fill="#10b981" filter="url(#glow)">
    <animate attributeName="height" values="70;90;70" dur="5s" repeatCount="indefinite"/>
    <animate attributeName="y" values="250;230;250" dur="5s" repeatCount="indefinite"/>
  </rect>
  <text x="650" y="240" fill="#6366f1" font-family="Arial" font-size="14" font-weight="bold" filter="url(#glow)">Memory</text>
  <text x="650" y="260" fill="#6366f1" font-family="Arial" font-size="14" font-weight="bold" filter="url(#glow)">Strength</text>
  
  <!-- New elements: Concept Connection Explosion -->
  <g transform="translate(400, 280)">
    <!-- Center of the explosion -->
    <circle cx="0" cy="0" r="8" fill="#ffffff" filter="url(#neonGlow)">
      <animate attributeName="r" values="8;12;8" dur="3s" repeatCount="indefinite"/>
      <animate attributeName="opacity" values="1;0.7;1" dur="3s" repeatCount="indefinite"/>
    </circle>
    
    <!-- Explosion Lines -->
    <g>
      <line x1="0" y1="0" x2="30" y2="-30" stroke="#ffffff" stroke-width="2" opacity="0.8">
        <animate attributeName="x2" values="30;35;30" dur="4s" repeatCount="indefinite"/>
        <animate attributeName="y2" values="-30;-35;-30" dur="4s" repeatCount="indefinite"/>
      </line>
      <line x1="0" y1="0" x2="30" y2="30" stroke="#ffffff" stroke-width="2" opacity="0.8">
        <animate attributeName="x2" values="30;35;30" dur="3.5s" repeatCount="indefinite"/>
        <animate attributeName="y2" values="30;35;30" dur="3.5s" repeatCount="indefinite"/>
      </line>
      <line x1="0" y1="0" x2="-30" y2="30" stroke="#ffffff" stroke-width="2" opacity="0.8">
        <animate attributeName="x2" values="-30;-35;-30" dur="4.5s" repeatCount="indefinite"/>
        <animate attributeName="y2" values="30;35;30" dur="4.5s" repeatCount="indefinite"/>
      </line>
      <line x1="0" y1="0" x2="-30" y2="-30" stroke="#ffffff" stroke-width="2" opacity="0.8">
        <animate attributeName="x2" values="-30;-35;-30" dur="3.8s" repeatCount="indefinite"/>
        <animate attributeName="y2" values="-30;-35;-30" dur="3.8s" repeatCount="indefinite"/>
      </line>
      <line x1="0" y1="0" x2="40" y2="0" stroke="#ffffff" stroke-width="2" opacity="0.8">
        <animate attributeName="x2" values="40;45;40" dur="3.2s" repeatCount="indefinite"/>
      </line>
      <line x1="0" y1="0" x2="-40" y2="0" stroke="#ffffff" stroke-width="2" opacity="0.8">
        <animate attributeName="x2" values="-40;-45;-40" dur="3.7s" repeatCount="indefinite"/>
      </line>
      <line x1="0" y1="0" x2="0" y2="40" stroke="#ffffff" stroke-width="2" opacity="0.8">
        <animate attributeName="y2" values="40;45;40" dur="4.2s" repeatCount="indefinite"/>
      </line>
      <line x1="0" y1="0" x2="0" y2="-40" stroke="#ffffff" stroke-width="2" opacity="0.8">
        <animate attributeName="y2" values="-40;-45;-40" dur="3.9s" repeatCount="indefinite"/>
      </line>
    </g>
    
    <!-- Small connection nodes at the ends of explosion lines -->
    <circle cx="30" cy="-30" r="4" fill="#ec4899" filter="url(#glow)">
      <animate attributeName="cx" values="30;35;30" dur="4s" repeatCount="indefinite"/>
      <animate attributeName="cy" values="-30;-35;-30" dur="4s" repeatCount="indefinite"/>
    </circle>
    <circle cx="30" cy="30" r="4" fill="#6366f1" filter="url(#glow)">
      <animate attributeName="cx" values="30;35;30" dur="3.5s" repeatCount="indefinite"/>
      <animate attributeName="cy" values="30;35;30" dur="3.5s" repeatCount="indefinite"/>
    </circle>
    <circle cx="-30" cy="30" r="4" fill="#8b5cf6" filter="url(#glow)">
      <animate attributeName="cx" values="-30;-35;-30" dur="4.5s" repeatCount="indefinite"/>
      <animate attributeName="cy" values="30;35;30" dur="4.5s" repeatCount="indefinite"/>
    </circle>
    <circle cx="-30" cy="-30" r="4" fill="#10b981" filter="url(#glow)">
      <animate attributeName="cx" values="-30;-35;-30" dur="3.8s" repeatCount="indefinite"/>
      <animate attributeName="cy" values="-30;-35;-30" dur="3.8s" repeatCount="indefinite"/>
    </circle>
    <circle cx="40" cy="0" r="4" fill="#f59e0b" filter="url(#glow)">
      <animate attributeName="cx" values="40;45;40" dur="3.2s" repeatCount="indefinite"/>
    </circle>
    <circle cx="-40" cy="0" r="4" fill="#ec4899" filter="url(#glow)">
      <animate attributeName="cx" values="-40;-45;-40" dur="3.7s" repeatCount="indefinite"/>
    </circle>
    <circle cx="0" cy="40" r="4" fill="#6366f1" filter="url(#glow)">
      <animate attributeName="cy" values="40;45;40" dur="4.2s" repeatCount="indefinite"/>
    </circle>
    <circle cx="0" cy="-40" r="4" fill="#8b5cf6" filter="url(#glow)">
      <animate attributeName="cy" values="-40;-45;-40" dur="3.9s" repeatCount="indefinite"/>
    </circle>
  </g>
  
  <!-- Central concept label -->
  <text x="400" y="325" fill="#ffffff" font-family="Arial" font-size="12" font-weight="bold" text-anchor="middle" filter="url(#glow)">Knowledge</text>
  <text x="400" y="340" fill="#ffffff" font-family="Arial" font-size="12" font-weight="bold" text-anchor="middle" filter="url(#glow)">Integration</text>
</svg>
